<?xml version="1.0" encoding="utf-8"?>
<!-- Generator: Adobe Illustrator 26.2.1, SVG Export Plug-In . SVG Version: 6.00 Build 0)  -->
<svg version="1.1" id="Capa_1" xmlns="http://www.w3.org/2000/svg" xmlns:xlink="http://www.w3.org/1999/xlink" x="0px" y="0px"
	 viewBox="0 0 1920 1080" style="enable-background:new 0 0 1920 1080;" xml:space="preserve">
<style type="text/css">
	.st0{fill:#33558E;}
	.st1{fill:#FFFFFF;}
</style>
<g>
	<g>
		<path class="st0" d="M442.1,512c3.9-4,8.4-7.1,13.6-9.4c5.3-2.1,10.8-3.2,16.8-3.2c11.6,0,21.8,4,30.3,12.4l15.3-15
			c-6-6-12.9-10.6-20.7-14c-6.8-3-14-4.6-21.7-4.9c-1.1-0.1-2.2-0.1-3.3-0.1c-8.9,0-17.3,1.8-25,5.2c-7.9,3.4-14.7,7.9-20.7,13.9
			c-5.8,5.8-10.5,12.6-13.9,20.3c-3.4,7.9-5.2,16.3-5.2,25.2c0,8.9,1.8,17.3,5.2,25.2c3.4,7.7,8.1,14.5,13.9,20.3
			c6,6,12.7,10.5,20.7,13.9c7.7,3.4,16.1,5.2,25,5.2c1.1,0,2.2,0,3.3-0.1c7.7-0.4,14.9-2,21.7-4.9c7.7-3.4,14.7-8.1,20.7-14
			l-15.3-15c-8.6,8.4-18.7,12.4-30.3,12.4c-6,0-11.5-1.1-16.8-3.2c-5.2-2.3-9.7-5.3-13.6-9.4c-4-3.9-7.1-8.4-9.4-13.6
			c-2.3-5.3-3.4-10.8-3.4-16.8c0-6,1.1-11.5,3.4-16.8C435,520.4,438.1,515.9,442.1,512z"/>
		<polygon class="st0" points="605.5,477.8 541,606.9 564.9,606.9 575.8,585.2 586.5,563.9 605.5,526 624.4,563.9 648.6,563.9 		"/>
		<polygon class="st0" points="635.4,585.4 646,606.9 670.1,606.9 659.3,585.4 		"/>
		<polygon class="st0" points="863.4,481.3 863.4,477.8 842,477.8 842,481.3 842,606.9 928,606.9 928,585.2 863.4,585.2 		"/>
		<path class="st0" d="M1064.3,517.5c-3.6-7.9-8.1-14.7-14-20.7c-5.8-5.8-12.7-10.5-20.5-13.9c-7.9-3.4-16.1-5.2-25-5.2h-42.9v129.1
			h42.9c8.9,0,17.3-1.8,25-5.2c7.9-3.4,14.8-8.1,20.7-13.9c5.8-6,10.3-12.7,13.9-20.6c3.4-7.8,5-16,5-24.9
			C1069.3,533.5,1067.7,525.2,1064.3,517.5z M1044.4,558.9c-2.3,5.2-5.3,9.7-9.2,13.7c-3.9,4-8.6,7.1-13.7,9.4
			c-5.2,2.1-10.8,3.2-16.8,3.2h-21.5v-85.8h21.5c5.8,0,11.5,1.1,16.6,3.2c5.2,2.2,9.8,5.5,13.7,9.4c4,4,7.1,8.6,9.4,13.7
			c2.3,5.3,3.4,10.8,3.4,16.6C1047.8,548.1,1046.7,553.6,1044.4,558.9z"/>
		<path class="st0" d="M1195.1,545.1c5.2-7.3,7.6-15.3,7.6-24.4c0-11.8-4.2-21.8-12.6-30.3c-8.4-8.4-18.6-12.6-30.3-12.6h-53.9h-2.8
			v129.1l21.5,0V499.4h35.2c5.8,0,10.8,2.1,15,6.3c4.4,4.2,6.5,9.2,6.5,15c0,6-2.1,11.1-6.5,15.3c-4.2,4.2-9.2,6.3-15,6.3l-19.2-0.2
			l37.4,64.7h24.7l-26.5-46.3C1183.8,557.5,1190.1,552.3,1195.1,545.1z"/>
		<polygon class="st0" points="1490.8,477.8 1490.8,509.8 1490.8,529.7 1490.8,555.1 1476.7,542.4 1471.9,538 1426.4,497.1 
			1404.9,477.8 1404.9,510.4 1404.9,606.9 1426.4,606.9 1426.4,529.7 1458.3,558.3 1457.2,559.8 1458.6,558.6 1512.3,606.9 
			1512.3,510.4 1512.3,477.8 		"/>
		<path class="st0" d="M777.7,477.3v75.9c0,8.7-3.2,16.3-9.5,22.6c-6.3,6.3-13.9,9.5-22.8,9.5s-16.6-3.1-22.9-9.5
			c-6.1-6.1-9.2-13.7-9.2-22.6v-75.4h-21.5v75.4c0,14.7,5.2,27.6,15.7,38.1c10.5,10.5,23.2,15.7,37.9,15.7s27.6-5.2,38.1-15.7
			c10.4-10.3,15.5-22.7,15.8-37.1l0,0v-76.9H777.7z"/>
		<path class="st0" d="M1369.7,545.8c-0.1,2.2-0.3,4.4-0.7,6.6c-0.1,0.5-0.2,1-0.2,1.4c-1,5.8-2.9,11.4-5.4,16.6
			c-0.2,0.4-0.4,0.8-0.6,1.2c-3.1,5.9-7.2,11.3-12.3,16.3c-12.6,12.6-27.6,19-45.5,19c-6.2,0-12-0.8-17.5-2.3
			c-0.4-0.1-0.8-0.2-1.2-0.4c-0.2-0.1-0.4-0.1-0.6-0.2c-0.5-0.1-0.9-0.3-1.4-0.4c-1.4-0.5-2.7-1-4.1-1.5c-0.4-0.2-0.9-0.4-1.3-0.6
			c0,0-0.1,0-0.1,0c-0.4-0.2-0.9-0.4-1.3-0.6c0,0,0,0,0,0c-6.5-3.1-12.5-7.5-18-13c-5.1-5.1-9.2-10.6-12.2-16.5
			c-0.2-0.5-0.5-0.9-0.7-1.4c-2.2-4.6-3.8-9.5-4.9-14.6c-0.1-0.5-0.2-1-0.3-1.5c-0.1-0.5-0.2-1-0.3-1.5c-0.3-2.1-0.6-4.3-0.7-6.5
			l23.6,12.2l0.1,0l0.8,0.5c2.1,5.2,5.2,10,9.5,14.3c8,8,17.8,12.1,28.9,12.4c0.5,0,1,0,1.6,0c0.6,0,1.2,0,1.7,0
			c11.1-0.4,20.6-4.4,28.6-12.4c2.2-2.2,4.1-4.4,5.7-6.8c1.6-2.4,2.9-4.9,4-7.5L1369.7,545.8z"/>
		<path class="st0" d="M1246.7,570c-2.2-4.6-3.9-9.5-4.9-14.6C1242.8,560.5,1244.5,565.4,1246.7,570z"/>
		<path class="st0" d="M1368.8,553.8c-1,5.9-2.8,11.4-5.4,16.6C1365.9,565.2,1367.8,559.6,1368.8,553.8z"/>
		<path class="st0" d="M1366.1,520.5C1366.1,520.5,1366,520.5,1366.1,520.5c-4.2-1.6-7.1-2.4-7.6-2.5c-4.9-1.2-9.8-1.8-14.6-1.8
			c-0.6,0-1.3,0-1.9,0c-0.9,0-1.8,0.1-2.7,0.2c-1.2-1.5-2.5-3-3.9-4.4c-8.4-8.4-18.6-12.6-30.3-12.6s-21.9,4-30.5,12.6
			c-1.4,1.4-2.7,2.9-3.9,4.4c-0.8-0.1-1.6-0.1-2.4-0.1c-0.6,0-1.3,0-1.9,0c-4.8,0-9.7,0.6-14.6,1.8c-0.5,0.1-3.4,0.8-7.5,2.5
			c0,0,0,0,0,0c0.2-0.6,0.5-1.3,0.7-1.9c0.4-1,0.8-1.9,1.2-2.9c3.2-6.8,7.6-13.1,13.4-18.9c4.7-4.7,9.7-8.6,15.1-11.6
			c0.4-0.3,0.9-0.5,1.4-0.7c0.5-0.2,0.9-0.5,1.4-0.7c3.1-1.5,6.3-2.7,9.7-3.7c0,0,0.1,0,0.1,0c0.1,0,0.2-0.1,0.4-0.1
			c0.5-0.1,1-0.3,1.6-0.4c5-1.2,10.3-1.9,15.9-1.9c17.9,0,32.9,6.5,45.5,19c5.8,5.8,10.3,12,13.5,18.9c0.2,0.5,0.5,1.1,0.7,1.6
			C1365.3,518.3,1365.7,519.4,1366.1,520.5z"/>
	</g>
	<path class="st0" d="M1368.2,527.8c-6.4-3-11.1-4.1-11.1-4.1c-4.9-1.2-9.9-1.8-14.9-1.7c-6.3,0.2-12.6,1.7-18.4,4.4
		c-1.8,0.9-3.5,1.9-5.2,3c-0.6,0.4-1,1-1.6,1.4c-0.5,0.3-0.9,0.2-1.2-0.2c-1-1.3-2.7-3-2.4-4.8c0.1-0.9,0.4-1.9,0.7-2.8
		c0.5-1.7,1.3-3.3,2.2-4.7c0.7-1.1,1.5-2.2,2.4-3.2c0.2-0.2,0.8-1.1,1.1-1.1c-9,0.8-11.8,7.6-11.8,7.6c-1-0.6-2.8-0.6-2.8-0.6
		s-1.8,0.1-2.7,0.6c0,0-2.8-6.9-11.8-7.6c0.3,0,0.9,0.9,1.1,1.1c0.9,1,1.7,2,2.4,3.2c0.9,1.5,1.7,3.1,2.2,4.7
		c0.3,0.9,0.5,1.8,0.6,2.8c0.3,1.8-1.4,3.5-2.4,4.8c-0.3,0.4-0.7,0.5-1.2,0.2c-0.6-0.3-1-1-1.6-1.4c-1.7-1.1-3.4-2.1-5.2-3
		c-5.7-2.7-12-4.2-18.4-4.4c-5-0.2-10.1,0.4-14.9,1.7c0,0-4.6,1.1-11.1,4.1c-5.3,2.5-11.8,6.2-17.9,11.8c0.5-0.1,9.2-2.2,16.5-2.2
		c6.1,0,11.3,1.4,10,6.4c0,0,15.7-4.1,16.7,8.6c0,0,31.5-2.2,37.8,18.1c6.3-20.3,37.8-18.1,37.8-18.1c1-12.7,16.7-8.6,16.7-8.6
		c-1.3-5.1,3.9-6.4,9.9-6.4c7.3,0,16,2.1,16.5,2.2C1380,534,1373.5,530.3,1368.2,527.8z"/>
</g>
</svg>
