<svg id="Layer_1" data-name="Layer 1" xmlns="http://www.w3.org/2000/svg" viewBox="0 0 1920 1080"><defs><style>.cls-1{fill:#fff;}.cls-2{fill:#33558e;}</style></defs><path class="cls-1" d="M512.62,514.07A35.69,35.69,0,0,1,524.31,506a38.79,38.79,0,0,1,14.47-2.79,36,36,0,0,1,26.16,10.72L578.16,501a57.68,57.68,0,0,0-17.81-12.11,52.48,52.48,0,0,0-18.72-4.25c-.94,0-1.89-.07-2.85-.07A53.49,53.49,0,0,0,517.21,489a55.69,55.69,0,0,0-17.81,12,56.8,56.8,0,0,0-12,17.53,55.18,55.18,0,0,0,0,43.42,56.8,56.8,0,0,0,12,17.53,55.69,55.69,0,0,0,17.81,12,53.48,53.48,0,0,0,21.57,4.45q1.44,0,2.85-.06a52.48,52.48,0,0,0,18.72-4.25,57.68,57.68,0,0,0,17.81-12.11l-13.22-12.94a36,36,0,0,1-26.16,10.72,38.79,38.79,0,0,1-14.47-2.79,39.41,39.41,0,0,1-19.76-19.76,37.2,37.2,0,0,1,0-28.94A35.69,35.69,0,0,1,512.62,514.07Z"/><polygon class="cls-1" points="660.68 484.56 605.01 595.89 625.61 595.89 635.07 577.25 644.26 558.88 660.68 526.17 676.96 558.88 697.84 558.88 660.68 484.56"/><polygon class="cls-1" points="686.42 577.39 695.61 595.89 716.34 595.89 707.02 577.39 686.42 577.39"/><polygon class="cls-1" points="874.42 487.63 874.42 484.56 855.91 484.56 855.91 487.63 855.91 595.89 930.08 595.89 930.08 577.25 874.42 577.25 874.42 487.63"/><path class="cls-1" d="M1044.89,518.8A58.69,58.69,0,0,0,1032.78,501a57.53,57.53,0,0,0-17.68-12,54.11,54.11,0,0,0-21.57-4.45h-37V595.9h37a53.45,53.45,0,0,0,21.57-4.46,56.6,56.6,0,0,0,17.82-12,60.73,60.73,0,0,0,12-17.81,55.43,55.43,0,0,0,0-42.86Zm-17.12,35.76a40.08,40.08,0,0,1-7.93,11.83,36.64,36.64,0,0,1-11.83,8.07,38.3,38.3,0,0,1-14.48,2.78H975v-74h18.51a37.56,37.56,0,0,1,34.24,22.68,36.62,36.62,0,0,1,0,28.66Z"/><path class="cls-1" d="M1149,542.59a35.11,35.11,0,0,0,6.54-21,37.06,37.06,0,0,0-37-37h-48.84V595.9h18.51V503.22h30.33a17.64,17.64,0,0,1,12.94,5.42,17.29,17.29,0,0,1,5.57,12.94,18.76,18.76,0,0,1-18.51,18.64l-16.56-.13,32.29,55.81h21.29L1132.68,556A35.83,35.83,0,0,0,1149,542.59Z"/><polygon class="cls-1" points="1418.52 484.56 1418.52 512.18 1418.52 529.32 1418.52 551.23 1406.34 540.27 1402.19 536.53 1362.98 501.23 1344.48 484.56 1344.48 512.67 1344.48 595.9 1362.98 595.9 1362.98 529.32 1390.46 554.02 1389.58 555.34 1390.76 554.28 1437.03 595.9 1437.03 512.67 1437.03 484.56 1418.52 484.56"/><path class="cls-1" d="M800.94,569a27.62,27.62,0,0,1-47.31-19.49v-65H735.12v65a46.36,46.36,0,0,0,79,32.85,44.36,44.36,0,0,0,13.63-32.85H809.17A26.75,26.75,0,0,1,800.94,569Z"/><polygon class="cls-1" points="809.17 549.55 827.8 550.39 827.8 484.1 809.17 484.1 809.17 549.55"/><path class="cls-1" d="M1323.81,537.88a74,74,0,0,0-14.24-1.89c-5.25,0-9.69,1.19-8.58,5.55,0,0-13.56-3.53-14.44,7.44,0,0-27.18-1.9-32.6,15.63-5.4-17.53-32.58-15.63-32.58-15.63-.88-11-14.44-7.44-14.44-7.44,1.11-4.37-3.34-5.56-8.6-5.55a73.63,73.63,0,0,0-14.22,1.89,62.77,62.77,0,0,1,15.45-10.16,54,54,0,0,1,9.56-3.5A47,47,0,0,1,1222,522.8a40.13,40.13,0,0,1,15.86,3.82,34.42,34.42,0,0,1,4.48,2.58c.5.34.85.9,1.39,1.19a.69.69,0,0,0,1-.2c.88-1.17,2.31-2.59,2.08-4.18a14,14,0,0,0-.56-2.38,18.67,18.67,0,0,0-1.94-4.09,19.9,19.9,0,0,0-2-2.72c-.14-.17-.66-1-.91-1,7.79.68,10.21,6.6,10.21,6.6a6.29,6.29,0,0,1,2.36-.55,6.36,6.36,0,0,1,2.38.55s2.42-5.92,10.21-6.6c-.25,0-.78.8-.92,1a20.68,20.68,0,0,0-2,2.72,18.67,18.67,0,0,0-1.94,4.09,15,15,0,0,0-.57,2.38c-.22,1.59,1.21,3,2.08,4.18a.71.71,0,0,0,1,.2c.54-.29.89-.85,1.39-1.19a34.42,34.42,0,0,1,4.48-2.58,40.13,40.13,0,0,1,15.85-3.82,46.94,46.94,0,0,1,12.88,1.42,53.58,53.58,0,0,1,9.54,3.5A62.22,62.22,0,0,1,1323.81,537.88Z"/><path class="cls-1" d="M1309.65,543.23c-.1,1.91-.3,3.8-.58,5.65-.07.42-.13.82-.21,1.23a55.48,55.48,0,0,1-4.62,14.31c-.17.34-.33.68-.52,1a56,56,0,0,1-10.59,14c-10.86,10.86-23.8,16.43-39.24,16.43a56.32,56.32,0,0,1-15.07-2q-.52-.13-1-.3l-.54-.17-1.17-.38c-1.2-.39-2.37-.84-3.52-1.33l-1.15-.49s0,0-.07,0c-.37-.17-.73-.33-1.09-.51l0,0a56.79,56.79,0,0,1-15.56-11.23,57.82,57.82,0,0,1-10.55-14.2c-.2-.4-.39-.79-.58-1.19a55.58,55.58,0,0,1-4.22-12.6c-.09-.44-.16-.88-.24-1.33s-.15-.86-.22-1.3c-.28-1.85-.48-3.73-.58-5.63l20.38,10.48.06,0,.71.46a36.83,36.83,0,0,0,33.14,23l1.35,0c.5,0,1,0,1.48,0a35.41,35.41,0,0,0,24.68-10.68,40.41,40.41,0,0,0,4.88-5.9,34,34,0,0,0,3.4-6.44Z"/><path class="cls-1" d="M1203.51,564.08a51.06,51.06,0,0,1-4.22-12.6A55.58,55.58,0,0,0,1203.51,564.08Z"/><path class="cls-1" d="M1308.86,550.11a50.71,50.71,0,0,1-4.62,14.31A55.48,55.48,0,0,0,1308.86,550.11Z"/><path class="cls-1" d="M1306.5,521.42h0a50.86,50.86,0,0,0-19.09-3.71c-.55,0-1.1,0-1.63,0-.78,0-1.56.07-2.34.14a38.4,38.4,0,0,0-3.36-3.8,37.08,37.08,0,0,0-52.46,0,38.09,38.09,0,0,0-3.35,3.78c-.67-.06-1.37-.09-2.07-.12-.53,0-1.09,0-1.63,0a52.06,52.06,0,0,0-12.61,1.59,49.55,49.55,0,0,0-6.51,2.13h0c.19-.56.4-1.11.63-1.66.33-.84.69-1.67,1.06-2.49A60.35,60.35,0,0,1,1227.7,491q.57-.33,1.17-.63l1.19-.59a51.13,51.13,0,0,1,8.37-3.17l.09,0c.1,0,.21-.05.31-.09l1.35-.35a57.6,57.6,0,0,1,13.71-1.6c15.45,0,28.38,5.57,39.24,16.42a56.14,56.14,0,0,1,11.66,16.29c.21.44.42.9.62,1.37C1305.8,519.54,1306.16,520.48,1306.5,521.42Z"/><path class="cls-1" d="M1207.93,519.29a49.55,49.55,0,0,0-6.51,2.13c.19-.55.4-1.1.61-1.65.33-.84.69-1.67,1.06-2.49A55.8,55.8,0,0,1,1227.7,491q.57-.33,1.17-.63l1.19-.59a55.71,55.71,0,0,1,8.37-3.17l.09,0c.1,0,.21-.05.31-.09l1.35-.35a55.81,55.81,0,0,1,64.61,31.11c.21.44.42.9.62,1.37.37.9.73,1.84,1.06,2.77a50.86,50.86,0,0,0-19.09-3.71c-.55,0-1.1,0-1.63,0-.78,0-1.56.07-2.34.14a38.4,38.4,0,0,0-3.36-3.8,37.08,37.08,0,0,0-52.46,0,38.09,38.09,0,0,0-3.35,3.78c-.67-.06-1.37-.09-2.07-.12-.53,0-1.09,0-1.63,0A52.06,52.06,0,0,0,1207.93,519.29Z"/><path class="cls-1" d="M1301,541.54s-13.56-3.53-14.44,7.44c0,0-27.18-1.9-32.6,15.63-5.4-17.53-32.58-15.63-32.58-15.63-.88-11-14.44-7.44-14.44-7.44,1.11-4.37-3.34-5.56-8.6-5.55a55.14,55.14,0,0,1,1.23-8.27,54,54,0,0,1,9.56-3.5A47,47,0,0,1,1222,522.8a40.13,40.13,0,0,1,15.86,3.82,34.42,34.42,0,0,1,4.48,2.58c.5.34.85.9,1.39,1.19a.69.69,0,0,0,1-.2c.88-1.17,2.31-2.59,2.08-4.18a14,14,0,0,0-.56-2.38,18.67,18.67,0,0,0-1.94-4.09,19.9,19.9,0,0,0-2-2.72c-.14-.17-.66-1-.91-1,7.79.68,10.21,6.6,10.21,6.6a6.29,6.29,0,0,1,2.36-.55,6.36,6.36,0,0,1,2.38.55s2.42-5.92,10.21-6.6c-.25,0-.78.8-.92,1a20.68,20.68,0,0,0-2,2.72,18.67,18.67,0,0,0-1.94,4.09,15,15,0,0,0-.57,2.38c-.22,1.59,1.21,3,2.08,4.18a.71.71,0,0,0,1,.2c.54-.29.89-.85,1.39-1.19a34.42,34.42,0,0,1,4.48-2.58,40.13,40.13,0,0,1,15.85-3.82,46.94,46.94,0,0,1,12.88,1.42,53.58,53.58,0,0,1,9.54,3.5,55.15,55.15,0,0,1,1.24,8.27C1304.32,536,1299.88,537.18,1301,541.54Z"/><path class="cls-2" d="M525.14,514.79A34.76,34.76,0,0,1,536.5,507a37.69,37.69,0,0,1,14.07-2.71A35,35,0,0,1,576,514.66l12.85-12.58a56,56,0,0,0-17.32-11.77,50.86,50.86,0,0,0-18.19-4.13c-.92,0-1.84-.06-2.77-.06a51.94,51.94,0,0,0-21,4.32,54.18,54.18,0,0,0-17.31,11.64,55.29,55.29,0,0,0-11.64,17,53.57,53.57,0,0,0,0,42.2,55.22,55.22,0,0,0,11.64,17A54.16,54.16,0,0,0,529.6,590a52,52,0,0,0,21,4.33c.93,0,1.85,0,2.77-.06a51.08,51.08,0,0,0,18.19-4.13,56.2,56.2,0,0,0,17.32-11.77L576,565.79a35,35,0,0,1-25.43,10.41,37.68,37.68,0,0,1-14.07-2.7,38.41,38.41,0,0,1-19.21-19.21,35.42,35.42,0,0,1,7.85-39.5Z"/><polygon class="cls-2" points="669.05 486.12 614.95 594.33 634.97 594.33 644.17 576.2 653.09 558.35 669.05 526.56 684.88 558.35 705.17 558.35 669.05 486.12"/><polygon class="cls-2" points="694.08 576.34 703.01 594.33 723.16 594.33 714.1 576.34 694.08 576.34"/><polygon class="cls-2" points="876.81 489.09 876.81 486.12 858.82 486.12 858.82 489.09 858.82 594.33 930.92 594.33 930.92 576.2 876.81 576.2 876.81 489.09"/><path class="cls-2" d="M1042.51,519.39a57.05,57.05,0,0,0-11.77-17.32,55.77,55.77,0,0,0-17.18-11.63,52.6,52.6,0,0,0-21-4.33h-36V594.33h36a51.94,51.94,0,0,0,21-4.33,55,55,0,0,0,17.32-11.64,58.83,58.83,0,0,0,11.63-17.31,53.87,53.87,0,0,0,0-41.66Zm-16.64,34.76a38.88,38.88,0,0,1-7.71,11.51,35.83,35.83,0,0,1-11.49,7.84,37.46,37.46,0,0,1-14.07,2.7h-18v-72h18a37,37,0,0,1,13.93,2.7,37.68,37.68,0,0,1,11.49,7.84,36.79,36.79,0,0,1,7.85,11.51,35.56,35.56,0,0,1,0,27.85Z"/><path class="cls-2" d="M1143.68,542.52A34.17,34.17,0,0,0,1150,522.1a36,36,0,0,0-36-36h-47.47V594.33h18V504.25h29.48a17.15,17.15,0,0,1,12.58,5.27,16.77,16.77,0,0,1,5.42,12.58,18.25,18.25,0,0,1-18,18.12l-16.09-.13,31.38,54.24H1150l-22.19-38.83A34.78,34.78,0,0,0,1143.68,542.52Z"/><polygon class="cls-2" points="1405.68 486.12 1405.68 512.96 1405.68 529.62 1405.68 550.91 1393.85 540.26 1389.81 536.63 1351.71 502.32 1333.72 486.12 1333.72 513.44 1333.72 594.33 1351.71 594.33 1351.71 529.62 1378.41 553.63 1377.56 554.91 1378.7 553.88 1423.67 594.33 1423.67 513.44 1423.67 486.12 1405.68 486.12"/><path class="cls-2" d="M805.4,568.22a26.86,26.86,0,0,1-46-18.93V486.12h-18v63.17a45.06,45.06,0,0,0,76.84,31.92,43.12,43.12,0,0,0,13.25-31.92H813.39A26,26,0,0,1,805.4,568.22Z"/><polygon class="cls-2" points="813.39 549.29 831.5 550.1 831.5 485.67 813.39 485.67 813.39 549.29"/><path class="cls-2" d="M1313.63,537.94a71.14,71.14,0,0,0-13.84-1.83c-5.1,0-9.42,1.15-8.34,5.39,0,0-13.18-3.43-14,7.23,0,0-26.42-1.84-31.68,15.19-5.25-17-31.67-15.19-31.67-15.19-.86-10.66-14-7.23-14-7.23,1.07-4.25-3.25-5.4-8.36-5.39a70.69,70.69,0,0,0-13.82,1.83,60.94,60.94,0,0,1,15-9.88,52.42,52.42,0,0,1,9.29-3.39,45.19,45.19,0,0,1,12.52-1.39,38.79,38.79,0,0,1,15.41,3.72,32.53,32.53,0,0,1,4.36,2.5c.49.33.83.88,1.35,1.16a.67.67,0,0,0,1-.2c.85-1.13,2.25-2.51,2-4.06a12.3,12.3,0,0,0-.54-2.31,18,18,0,0,0-1.88-4,20.47,20.47,0,0,0-2-2.66c-.13-.16-.65-.91-.88-.93,7.56.66,9.92,6.41,9.92,6.41a5.28,5.28,0,0,1,4.61,0s2.35-5.75,9.92-6.41c-.24,0-.76.77-.9.93a22.3,22.3,0,0,0-2,2.66,17.19,17.19,0,0,0-1.88,4,14.14,14.14,0,0,0-.56,2.31c-.21,1.55,1.18,2.93,2,4.06a.68.68,0,0,0,1,.2c.52-.28.86-.83,1.35-1.16a31.92,31.92,0,0,1,4.36-2.5,38.74,38.74,0,0,1,15.4-3.72,45.11,45.11,0,0,1,12.52,1.39,52.2,52.2,0,0,1,9.28,3.39A60.54,60.54,0,0,1,1313.63,537.94Z"/><path class="cls-2" d="M1299.86,543.14a52.06,52.06,0,0,1-.56,5.49c-.06.41-.13.8-.2,1.2a53.81,53.81,0,0,1-4.5,13.91c-.16.33-.32.66-.5,1a54.49,54.49,0,0,1-10.29,13.63c-10.56,10.56-23.14,16-38.15,16a54.84,54.84,0,0,1-14.64-1.91l-1-.29-.53-.16-1.14-.38c-1.16-.38-2.3-.82-3.42-1.28l-1.11-.48a.17.17,0,0,0-.07,0l-1.06-.49,0,0a55.09,55.09,0,0,1-15.11-10.92,56.06,56.06,0,0,1-10.26-13.8c-.19-.39-.38-.77-.56-1.15a53.84,53.84,0,0,1-4.11-12.25c-.08-.43-.16-.85-.23-1.29s-.15-.84-.21-1.27a54.76,54.76,0,0,1-.57-5.47l19.82,10.19,0,0,.69.45a35.83,35.83,0,0,0,32.21,22.38l1.31,0q.73,0,1.44,0a34.4,34.4,0,0,0,24-10.39,37.63,37.63,0,0,0,4.74-5.73,33.88,33.88,0,0,0,3.32-6.26Z"/><path class="cls-2" d="M1196.7,563.41a49.78,49.78,0,0,1-4.11-12.25A53.84,53.84,0,0,0,1196.7,563.41Z"/><path class="cls-2" d="M1299.1,549.83a49.39,49.39,0,0,1-4.5,13.91A53.81,53.81,0,0,0,1299.1,549.83Z"/><path class="cls-2" d="M1296.81,521.94h0a52.22,52.22,0,0,0-6.3-2.07,51,51,0,0,0-12.25-1.53l-1.59,0c-.76,0-1.51.07-2.27.14a38.84,38.84,0,0,0-3.27-3.7,36.06,36.06,0,0,0-51,0,38.39,38.39,0,0,0-3.25,3.68c-.66-.06-1.33-.09-2-.12l-1.59,0a50.59,50.59,0,0,0-12.26,1.54,49.09,49.09,0,0,0-6.33,2.07h0c.19-.54.39-1.08.62-1.61.32-.82.67-1.63,1-2.43a58.72,58.72,0,0,1,23.92-25.52c.37-.21.75-.42,1.14-.61s.76-.39,1.16-.57a48.47,48.47,0,0,1,8.12-3.08l.1,0c.1,0,.2-.06.3-.09l1.31-.34a56,56,0,0,1,13.32-1.56c15,0,27.59,5.42,38.15,16a54.65,54.65,0,0,1,11.33,15.83c.21.44.41.89.6,1.33C1296.12,520.12,1296.48,521,1296.81,521.94Z"/><path class="cls-2" d="M1201,519.87a49.09,49.09,0,0,0-6.33,2.07c.19-.53.39-1.07.6-1.6.32-.82.67-1.63,1-2.43a54.2,54.2,0,0,1,23.92-25.52c.37-.21.75-.42,1.14-.61s.76-.39,1.16-.57a52.85,52.85,0,0,1,8.12-3.08l.1,0c.1,0,.2-.06.3-.09l1.31-.34a54.26,54.26,0,0,1,62.8,30.23c.21.44.41.89.6,1.33.36.89.71,1.79,1,2.7a52.22,52.22,0,0,0-6.3-2.07,51,51,0,0,0-12.25-1.53l-1.59,0c-.76,0-1.51.07-2.27.14a38.84,38.84,0,0,0-3.27-3.7,36.06,36.06,0,0,0-51,0,38.39,38.39,0,0,0-3.25,3.68c-.66-.06-1.33-.09-2-.12l-1.59,0A50.59,50.59,0,0,0,1201,519.87Z"/><path class="cls-2" d="M1291.45,541.5s-13.18-3.43-14,7.23c0,0-26.42-1.84-31.68,15.19-5.25-17-31.67-15.19-31.67-15.19-.86-10.66-14-7.23-14-7.23,1.07-4.25-3.25-5.4-8.36-5.39a53.31,53.31,0,0,1,1.2-8.05,52.42,52.42,0,0,1,9.29-3.39,45.19,45.19,0,0,1,12.52-1.39,38.79,38.79,0,0,1,15.41,3.72,32.53,32.53,0,0,1,4.36,2.5c.49.33.83.88,1.35,1.16a.67.67,0,0,0,1-.2c.85-1.13,2.25-2.51,2-4.06a12.3,12.3,0,0,0-.54-2.31,18,18,0,0,0-1.88-4,20.47,20.47,0,0,0-2-2.66c-.13-.16-.65-.91-.88-.93,7.56.66,9.92,6.41,9.92,6.41a5.28,5.28,0,0,1,4.61,0s2.35-5.75,9.92-6.41c-.24,0-.76.77-.9.93a22.3,22.3,0,0,0-2,2.66,17.19,17.19,0,0,0-1.88,4,14.14,14.14,0,0,0-.56,2.31c-.21,1.55,1.18,2.93,2,4.06a.68.68,0,0,0,1,.2c.52-.28.86-.83,1.35-1.16a31.92,31.92,0,0,1,4.36-2.5,38.74,38.74,0,0,1,15.4-3.72,45.11,45.11,0,0,1,12.52,1.39,52.2,52.2,0,0,1,9.28,3.39,54.61,54.61,0,0,1,1.2,8.05C1294.69,536.1,1290.37,537.26,1291.45,541.5Z"/></svg>