<svg id="Layer_1" data-name="Layer 1" xmlns="http://www.w3.org/2000/svg" viewBox="0 0 1920 1080"><defs><style>.cls-1{fill:#010102;}</style></defs><path class="cls-1" d="M503.76,513.55a36.83,36.83,0,0,1,11.92-8.23,39.73,39.73,0,0,1,14.76-2.84,36.76,36.76,0,0,1,26.68,10.93l13.48-13.2a58.86,58.86,0,0,0-18.16-12.34,53.59,53.59,0,0,0-19.09-4.34q-1.44-.06-2.91-.06a54.47,54.47,0,0,0-22,4.54,56.79,56.79,0,0,0-18.17,12.2,58.18,58.18,0,0,0-12.21,17.88,56.25,56.25,0,0,0,0,44.28,57.94,57.94,0,0,0,12.21,17.88,56.66,56.66,0,0,0,18.17,12.21,54.47,54.47,0,0,0,22,4.54c1,0,1.95,0,2.91-.07a53.37,53.37,0,0,0,19.09-4.33,58.71,58.71,0,0,0,18.16-12.35l-13.48-13.19A36.75,36.75,0,0,1,530.44,578a39.72,39.72,0,0,1-14.76-2.83,37.53,37.53,0,0,1-11.92-61.6Z"/><polygon class="cls-1" points="654.75 483.47 597.99 597 618.99 597 628.64 577.98 638.01 559.25 654.75 525.9 671.36 559.25 692.65 559.25 654.75 483.47"/><polygon class="cls-1" points="681.01 578.13 690.37 597 711.52 597 702.01 578.13 681.01 578.13"/><polygon class="cls-1" points="872.72 486.59 872.72 483.47 853.85 483.47 853.85 486.59 853.85 597 929.49 597 929.49 577.98 872.72 577.98 872.72 486.59"/><path class="cls-1" d="M1046.57,518.38a59.9,59.9,0,0,0-12.35-18.17,58.74,58.74,0,0,0-18-12.21,55.12,55.12,0,0,0-22-4.53H956.45V597H994.2a54.27,54.27,0,0,0,22-4.55,57.49,57.49,0,0,0,18.17-12.2,61.94,61.94,0,0,0,12.21-18.16,56.6,56.6,0,0,0,0-43.71Zm-17.46,36.47a41,41,0,0,1-8.09,12.07,37.39,37.39,0,0,1-12.06,8.22A39,39,0,0,1,994.2,578H975.32V502.49H994.2a38.77,38.77,0,0,1,14.62,2.84,39.34,39.34,0,0,1,12.06,8.22,38.87,38.87,0,0,1,8.23,12.07,37.44,37.44,0,0,1,0,29.23Z"/><path class="cls-1" d="M1152.71,542.64a35.79,35.79,0,0,0,6.67-21.42,37.78,37.78,0,0,0-37.75-37.75h-49.81V597h18.87V502.49h30.94a18,18,0,0,1,13.2,5.53,17.63,17.63,0,0,1,5.67,13.2,19.12,19.12,0,0,1-18.87,19l-16.89-.13,32.92,56.9h21.72l-23.28-40.73A36.53,36.53,0,0,0,1152.71,542.64Z"/><polygon class="cls-1" points="1427.59 483.47 1427.59 511.63 1427.59 529.11 1427.59 551.45 1415.17 540.27 1410.94 536.46 1370.96 500.46 1352.09 483.47 1352.09 512.13 1352.09 597 1370.96 597 1370.96 529.11 1398.98 554.3 1398.09 555.64 1399.28 554.57 1446.47 597 1446.47 512.13 1446.47 483.47 1427.59 483.47"/><path class="cls-1" d="M797.8,569.61a28.18,28.18,0,0,1-48.26-19.87V483.47H730.67v66.27a47.26,47.26,0,0,0,80.61,33.49,45.19,45.19,0,0,0,13.91-33.49h-19A27.27,27.27,0,0,1,797.8,569.61Z"/><polygon class="cls-1" points="806.19 549.74 825.19 550.6 825.19 483 806.19 483 806.19 549.74"/><path class="cls-1" d="M1331,537.84a75.37,75.37,0,0,0-14.52-1.93c-5.35,0-9.88,1.21-8.75,5.66,0,0-13.82-3.6-14.73,7.59,0,0-27.72-1.94-33.24,15.94-5.51-17.88-33.22-15.94-33.22-15.94-.91-11.19-14.73-7.59-14.73-7.59,1.13-4.46-3.41-5.67-8.78-5.66a75,75,0,0,0-14.49,1.93,63.72,63.72,0,0,1,15.76-10.36,55,55,0,0,1,9.74-3.57,47.68,47.68,0,0,1,13.13-1.45,40.8,40.8,0,0,1,16.18,3.9,34.65,34.65,0,0,1,4.57,2.63c.51.34.87.91,1.42,1.21a.71.71,0,0,0,1-.21c.89-1.18,2.35-2.64,2.12-4.26a13.51,13.51,0,0,0-.57-2.42,18.53,18.53,0,0,0-2-4.17,20.75,20.75,0,0,0-2.08-2.78c-.14-.17-.68-1-.93-1,7.94.7,10.41,6.73,10.41,6.73a6.43,6.43,0,0,1,2.41-.56,6.5,6.5,0,0,1,2.43.56s2.47-6,10.4-6.73c-.24,0-.79.82-.94,1a21.49,21.49,0,0,0-2.06,2.78,18.53,18.53,0,0,0-2,4.17,14.45,14.45,0,0,0-.58,2.42c-.23,1.62,1.24,3.08,2.12,4.26a.72.72,0,0,0,1,.21c.55-.3.91-.87,1.42-1.21a33.41,33.41,0,0,1,4.57-2.63,40.79,40.79,0,0,1,16.16-3.9,47.56,47.56,0,0,1,13.13,1.45,55,55,0,0,1,9.74,3.57A63.33,63.33,0,0,1,1331,537.84Z"/><path class="cls-1" d="M1316.57,543.29a57.21,57.21,0,0,1-.59,5.77l-.21,1.25a56.46,56.46,0,0,1-4.72,14.6c-.17.34-.34.69-.53,1a57,57,0,0,1-10.79,14.31c-11.08,11.08-24.28,16.75-40,16.75a57.7,57.7,0,0,1-15.37-2l-1.07-.31-.55-.17-1.2-.39c-1.21-.4-2.41-.86-3.58-1.35l-1.18-.51-.06,0c-.38-.17-.75-.33-1.12-.51,0,0,0,0,0,0a58,58,0,0,1-15.85-11.45,58.75,58.75,0,0,1-10.77-14.48c-.2-.41-.4-.81-.59-1.21a56.79,56.79,0,0,1-4.3-12.85c-.09-.45-.17-.9-.25-1.36s-.15-.88-.22-1.33a56.91,56.91,0,0,1-.59-5.74L1223.75,554l.06,0,.73.47A37.54,37.54,0,0,0,1258.33,578l1.38,0c.51,0,1,0,1.51,0a36.08,36.08,0,0,0,25.16-10.9,40.2,40.2,0,0,0,5-6,34.46,34.46,0,0,0,3.47-6.57Z"/><path class="cls-1" d="M1208.33,564.56a51.83,51.83,0,0,1-4.3-12.85A56.79,56.79,0,0,0,1208.33,564.56Z"/><path class="cls-1" d="M1315.77,550.31a52,52,0,0,1-4.72,14.6A56.46,56.46,0,0,0,1315.77,550.31Z"/><path class="cls-1" d="M1313.36,521.05h0a54.81,54.81,0,0,0-6.62-2.17,53.47,53.47,0,0,0-12.85-1.61l-1.67,0c-.79,0-1.58.08-2.38.15a41.24,41.24,0,0,0-3.43-3.88,37.85,37.85,0,0,0-53.5,0,39.31,39.31,0,0,0-3.4,3.86c-.7-.06-1.4-.09-2.12-.13l-1.66,0a53.21,53.21,0,0,0-12.87,1.62,51.94,51.94,0,0,0-6.63,2.17h0c.2-.57.42-1.13.65-1.69.34-.86.71-1.71,1.09-2.54A61.5,61.5,0,0,1,1233,490.05c.39-.22.79-.44,1.19-.64s.81-.41,1.22-.6a51.27,51.27,0,0,1,8.53-3.23l.1,0,.31-.08,1.37-.36a58.35,58.35,0,0,1,14-1.63c15.75,0,28.94,5.67,40,16.74a57.31,57.31,0,0,1,11.89,16.61c.21.45.42.92.62,1.39C1312.65,519.14,1313,520.09,1313.36,521.05Z"/><path class="cls-1" d="M1212.83,518.88a51.94,51.94,0,0,0-6.63,2.17c.2-.56.41-1.12.62-1.68.34-.86.71-1.71,1.09-2.54A56.85,56.85,0,0,1,1233,490.05c.39-.22.79-.44,1.19-.64s.81-.41,1.22-.6a55.69,55.69,0,0,1,8.53-3.23l.1,0,.31-.08,1.37-.36a56.9,56.9,0,0,1,65.9,31.72c.21.45.42.92.62,1.39.38.93.75,1.88,1.09,2.83a54.81,54.81,0,0,0-6.62-2.17,53.47,53.47,0,0,0-12.85-1.61l-1.67,0c-.79,0-1.58.08-2.38.15a41.24,41.24,0,0,0-3.43-3.88,37.85,37.85,0,0,0-53.5,0,39.31,39.31,0,0,0-3.4,3.86c-.7-.06-1.4-.09-2.12-.13l-1.66,0A53.21,53.21,0,0,0,1212.83,518.88Z"/><path class="cls-1" d="M1307.74,541.57s-13.82-3.6-14.73,7.59c0,0-27.72-1.94-33.24,15.94-5.51-17.88-33.22-15.94-33.22-15.94-.91-11.19-14.73-7.59-14.73-7.59,1.13-4.46-3.41-5.67-8.78-5.66a57.11,57.11,0,0,1,1.27-8.43,55,55,0,0,1,9.74-3.57,47.68,47.68,0,0,1,13.13-1.45,40.8,40.8,0,0,1,16.18,3.9,34.65,34.65,0,0,1,4.57,2.63c.51.34.87.91,1.42,1.21a.71.71,0,0,0,1-.21c.89-1.18,2.35-2.64,2.12-4.26a13.51,13.51,0,0,0-.57-2.42,18.53,18.53,0,0,0-2-4.17,20.75,20.75,0,0,0-2.08-2.78c-.14-.17-.68-1-.93-1,7.94.7,10.41,6.73,10.41,6.73a6.43,6.43,0,0,1,2.41-.56,6.5,6.5,0,0,1,2.43.56s2.47-6,10.4-6.73c-.24,0-.79.82-.94,1a21.49,21.49,0,0,0-2.06,2.78,18.53,18.53,0,0,0-2,4.17,14.45,14.45,0,0,0-.58,2.42c-.23,1.62,1.24,3.08,2.12,4.26a.72.72,0,0,0,1,.21c.55-.3.91-.87,1.42-1.21a33.41,33.41,0,0,1,4.57-2.63,40.79,40.79,0,0,1,16.16-3.9,47.56,47.56,0,0,1,13.13,1.45,55,55,0,0,1,9.74,3.57,57.1,57.1,0,0,1,1.26,8.43C1311.14,535.9,1306.61,537.12,1307.74,541.57Z"/></svg>