<svg id="Layer_1" data-name="Layer 1" xmlns="http://www.w3.org/2000/svg" viewBox="0 0 1920 1080"><defs><style>.cls-1{fill:#33558e;}</style></defs><path class="cls-1" d="M525.14,514.79A34.76,34.76,0,0,1,536.5,507a37.69,37.69,0,0,1,14.07-2.71A35,35,0,0,1,576,514.66l12.85-12.58a56,56,0,0,0-17.32-11.77,50.86,50.86,0,0,0-18.19-4.13c-.92,0-1.84-.06-2.77-.06a51.94,51.94,0,0,0-21,4.32,54.18,54.18,0,0,0-17.31,11.64,55.29,55.29,0,0,0-11.64,17,53.57,53.57,0,0,0,0,42.2,55.22,55.22,0,0,0,11.64,17A54.16,54.16,0,0,0,529.6,590a52,52,0,0,0,21,4.33c.93,0,1.85,0,2.77-.06a51.08,51.08,0,0,0,18.19-4.13,56.2,56.2,0,0,0,17.32-11.77L576,565.79a35,35,0,0,1-25.43,10.41,37.68,37.68,0,0,1-14.07-2.7,38.41,38.41,0,0,1-19.21-19.21,35.42,35.42,0,0,1,7.85-39.5Z"/><polygon class="cls-1" points="669.05 486.12 614.95 594.33 634.97 594.33 644.17 576.2 653.09 558.35 669.05 526.56 684.88 558.35 705.17 558.35 669.05 486.12"/><polygon class="cls-1" points="694.08 576.34 703.01 594.33 723.16 594.33 714.1 576.34 694.08 576.34"/><polygon class="cls-1" points="876.81 489.09 876.81 486.12 858.82 486.12 858.82 489.09 858.82 594.33 930.92 594.33 930.92 576.2 876.81 576.2 876.81 489.09"/><path class="cls-1" d="M1042.51,519.39a57.05,57.05,0,0,0-11.77-17.32,55.77,55.77,0,0,0-17.18-11.63,52.6,52.6,0,0,0-21-4.33h-36V594.33h36a51.94,51.94,0,0,0,21-4.33,55,55,0,0,0,17.32-11.64,58.83,58.83,0,0,0,11.63-17.31,53.87,53.87,0,0,0,0-41.66Zm-16.64,34.76a38.88,38.88,0,0,1-7.71,11.51,35.83,35.83,0,0,1-11.49,7.84,37.46,37.46,0,0,1-14.07,2.7h-18v-72h18a37,37,0,0,1,13.93,2.7,37.68,37.68,0,0,1,11.49,7.84,36.79,36.79,0,0,1,7.85,11.51,35.56,35.56,0,0,1,0,27.85Z"/><path class="cls-1" d="M1143.68,542.52A34.17,34.17,0,0,0,1150,522.1a36,36,0,0,0-36-36h-47.47V594.33h18V504.25h29.48a17.15,17.15,0,0,1,12.58,5.27,16.77,16.77,0,0,1,5.42,12.58,18.25,18.25,0,0,1-18,18.12l-16.09-.13,31.38,54.24H1150l-22.19-38.83A34.78,34.78,0,0,0,1143.68,542.52Z"/><polygon class="cls-1" points="1405.68 486.12 1405.68 512.96 1405.68 529.62 1405.68 550.91 1393.85 540.26 1389.81 536.63 1351.71 502.32 1333.72 486.12 1333.72 513.44 1333.72 594.33 1351.71 594.33 1351.71 529.62 1378.41 553.63 1377.56 554.91 1378.7 553.88 1423.67 594.33 1423.67 513.44 1423.67 486.12 1405.68 486.12"/><path class="cls-1" d="M805.4,568.22a26.86,26.86,0,0,1-46-18.93V486.12h-18v63.17a45.06,45.06,0,0,0,76.84,31.92,43.12,43.12,0,0,0,13.25-31.92H813.39A26,26,0,0,1,805.4,568.22Z"/><polygon class="cls-1" points="813.39 549.29 831.5 550.1 831.5 485.67 813.39 485.67 813.39 549.29"/><path class="cls-1" d="M1313.63,537.94a71.14,71.14,0,0,0-13.84-1.83c-5.1,0-9.42,1.15-8.34,5.39,0,0-13.18-3.43-14,7.23,0,0-26.42-1.84-31.68,15.19-5.25-17-31.67-15.19-31.67-15.19-.86-10.66-14-7.23-14-7.23,1.07-4.25-3.25-5.4-8.36-5.39a70.69,70.69,0,0,0-13.82,1.83,60.94,60.94,0,0,1,15-9.88,52.42,52.42,0,0,1,9.29-3.39,45.19,45.19,0,0,1,12.52-1.39,38.79,38.79,0,0,1,15.41,3.72,32.53,32.53,0,0,1,4.36,2.5c.49.33.83.88,1.35,1.16a.67.67,0,0,0,1-.2c.85-1.13,2.25-2.51,2-4.06a12.3,12.3,0,0,0-.54-2.31,18,18,0,0,0-1.88-4,20.47,20.47,0,0,0-2-2.66c-.13-.16-.65-.91-.88-.93,7.56.66,9.92,6.41,9.92,6.41a5.28,5.28,0,0,1,4.61,0s2.35-5.75,9.92-6.41c-.24,0-.76.77-.9.93a22.3,22.3,0,0,0-2,2.66,17.19,17.19,0,0,0-1.88,4,14.14,14.14,0,0,0-.56,2.31c-.21,1.55,1.18,2.93,2,4.06a.68.68,0,0,0,1,.2c.52-.28.86-.83,1.35-1.16a31.92,31.92,0,0,1,4.36-2.5,38.74,38.74,0,0,1,15.4-3.72,45.11,45.11,0,0,1,12.52,1.39,52.2,52.2,0,0,1,9.28,3.39A60.54,60.54,0,0,1,1313.63,537.94Z"/><path class="cls-1" d="M1299.86,543.14a52.06,52.06,0,0,1-.56,5.49c-.06.41-.13.8-.2,1.2a53.81,53.81,0,0,1-4.5,13.91c-.16.33-.32.66-.5,1a54.49,54.49,0,0,1-10.29,13.63c-10.56,10.56-23.14,16-38.15,16a54.84,54.84,0,0,1-14.64-1.91l-1-.29-.53-.16-1.14-.38c-1.16-.38-2.3-.82-3.42-1.28l-1.11-.48a.17.17,0,0,0-.07,0l-1.06-.49,0,0a55.09,55.09,0,0,1-15.11-10.92,56.06,56.06,0,0,1-10.26-13.8c-.19-.39-.38-.77-.56-1.15a53.84,53.84,0,0,1-4.11-12.25c-.08-.43-.16-.85-.23-1.29s-.15-.84-.21-1.27a54.76,54.76,0,0,1-.57-5.47l19.82,10.19,0,0,.69.45a35.83,35.83,0,0,0,32.21,22.38l1.31,0q.73,0,1.44,0a34.4,34.4,0,0,0,24-10.39,37.63,37.63,0,0,0,4.74-5.73,33.88,33.88,0,0,0,3.32-6.26Z"/><path class="cls-1" d="M1196.7,563.41a49.78,49.78,0,0,1-4.11-12.25A53.84,53.84,0,0,0,1196.7,563.41Z"/><path class="cls-1" d="M1299.1,549.83a49.39,49.39,0,0,1-4.5,13.91A53.81,53.81,0,0,0,1299.1,549.83Z"/><path class="cls-1" d="M1296.81,521.94h0a52.22,52.22,0,0,0-6.3-2.07,51,51,0,0,0-12.25-1.53l-1.59,0c-.76,0-1.51.07-2.27.14a38.84,38.84,0,0,0-3.27-3.7,36.06,36.06,0,0,0-51,0,38.39,38.39,0,0,0-3.25,3.68c-.66-.06-1.33-.09-2-.12l-1.59,0a50.59,50.59,0,0,0-12.26,1.54,49.09,49.09,0,0,0-6.33,2.07h0c.19-.54.39-1.08.62-1.61.32-.82.67-1.63,1-2.43a58.72,58.72,0,0,1,23.92-25.52c.37-.21.75-.42,1.14-.61s.76-.39,1.16-.57a48.47,48.47,0,0,1,8.12-3.08l.1,0c.1,0,.2-.06.3-.09l1.31-.34a56,56,0,0,1,13.32-1.56c15,0,27.59,5.42,38.15,16a54.65,54.65,0,0,1,11.33,15.83c.21.44.41.89.6,1.33C1296.12,520.12,1296.48,521,1296.81,521.94Z"/><path class="cls-1" d="M1201,519.87a49.09,49.09,0,0,0-6.33,2.07c.19-.53.39-1.07.6-1.6.32-.82.67-1.63,1-2.43a54.2,54.2,0,0,1,23.92-25.52c.37-.21.75-.42,1.14-.61s.76-.39,1.16-.57a52.85,52.85,0,0,1,8.12-3.08l.1,0c.1,0,.2-.06.3-.09l1.31-.34a54.26,54.26,0,0,1,62.8,30.23c.21.44.41.89.6,1.33.36.89.71,1.79,1,2.7a52.22,52.22,0,0,0-6.3-2.07,51,51,0,0,0-12.25-1.53l-1.59,0c-.76,0-1.51.07-2.27.14a38.84,38.84,0,0,0-3.27-3.7,36.06,36.06,0,0,0-51,0,38.39,38.39,0,0,0-3.25,3.68c-.66-.06-1.33-.09-2-.12l-1.59,0A50.59,50.59,0,0,0,1201,519.87Z"/><path class="cls-1" d="M1291.45,541.5s-13.18-3.43-14,7.23c0,0-26.42-1.84-31.68,15.19-5.25-17-31.67-15.19-31.67-15.19-.86-10.66-14-7.23-14-7.23,1.07-4.25-3.25-5.4-8.36-5.39a53.31,53.31,0,0,1,1.2-8.05,52.42,52.42,0,0,1,9.29-3.39,45.19,45.19,0,0,1,12.52-1.39,38.79,38.79,0,0,1,15.41,3.72,32.53,32.53,0,0,1,4.36,2.5c.49.33.83.88,1.35,1.16a.67.67,0,0,0,1-.2c.85-1.13,2.25-2.51,2-4.06a12.3,12.3,0,0,0-.54-2.31,18,18,0,0,0-1.88-4,20.47,20.47,0,0,0-2-2.66c-.13-.16-.65-.91-.88-.93,7.56.66,9.92,6.41,9.92,6.41a5.28,5.28,0,0,1,4.61,0s2.35-5.75,9.92-6.41c-.24,0-.76.77-.9.93a22.3,22.3,0,0,0-2,2.66,17.19,17.19,0,0,0-1.88,4,14.14,14.14,0,0,0-.56,2.31c-.21,1.55,1.18,2.93,2,4.06a.68.68,0,0,0,1,.2c.52-.28.86-.83,1.35-1.16a31.92,31.92,0,0,1,4.36-2.5,38.74,38.74,0,0,1,15.4-3.72,45.11,45.11,0,0,1,12.52,1.39,52.2,52.2,0,0,1,9.28,3.39,54.61,54.61,0,0,1,1.2,8.05C1294.69,536.1,1290.37,537.26,1291.45,541.5Z"/></svg>